<svg width="871" height="155" viewBox="0 0 871 155" fill="none" xmlns="http://www.w3.org/2000/svg">
<path d="M840.263 128.851C834.194 128.851 828.524 127.757 823.252 125.568C818.079 123.281 813.205 119.351 808.629 113.78L821.461 100.5C824.943 103.883 828.325 106.32 831.608 107.812C834.99 109.304 838.472 110.05 842.053 110.05C843.844 110.05 845.336 109.702 846.53 109.006C847.723 108.21 848.32 107.265 848.32 106.171C848.32 105.176 847.922 104.33 847.126 103.634C846.43 102.938 844.938 102.241 842.65 101.545C840.461 100.849 837.228 99.9532 832.951 98.859C825.092 96.8695 819.323 94.0344 815.642 90.3537C811.961 86.5736 810.121 81.6495 810.121 75.5814C810.121 71.105 811.315 67.0264 813.702 63.3458C816.09 59.5657 819.522 56.5814 823.998 54.3929C828.475 52.1049 833.747 50.9609 839.815 50.9609C847.077 50.9609 853.244 52.3039 858.318 54.9897C863.391 57.6756 867.619 60.9086 871.001 64.6887L856.825 77.372C854.438 75.283 851.603 73.5919 848.32 72.2987C845.137 71.0055 841.655 70.3589 837.875 70.3589C835.886 70.3589 834.244 70.7071 832.951 71.4034C831.658 72.0003 831.011 72.8956 831.011 74.0893C831.011 75.1835 831.857 76.1783 833.548 77.0736C835.338 77.8694 838.969 78.9139 844.441 80.2071C853.493 82.3956 860.058 85.4296 864.137 89.3092C868.215 93.0893 870.255 98.2124 870.255 104.678C870.255 109.453 868.962 113.681 866.375 117.362C863.888 120.943 860.357 123.778 855.781 125.867C851.304 127.856 846.132 128.851 840.263 128.851Z" fill="white"/>
<path d="M754.953 128.404C749.582 128.404 745.155 127.608 741.673 126.016C738.291 124.425 735.655 122.286 733.765 119.6C731.875 116.815 730.532 113.632 729.736 110.05C729.04 106.37 728.691 102.44 728.691 98.2624V53.3486H752.864V95.5765C752.864 99.2571 753.561 101.744 754.953 103.037C756.445 104.231 758.335 104.828 760.623 104.828C762.414 104.828 764.155 104.529 765.846 103.933C767.637 103.336 769.377 102.44 771.068 101.247C772.859 100.053 774.6 98.5111 776.291 96.621L781.364 108.558H773.904V53.3486H798.226V126.464H780.32L775.396 111.393L784.199 112.438C781.812 115.124 779.076 117.71 775.993 120.197C772.909 122.584 769.576 124.574 765.995 126.166C762.513 127.658 758.833 128.404 754.953 128.404Z" fill="white"/>
<path d="M696.279 126.464L680.761 101.694H686.431L670.763 126.464H644.203L672.106 86.4744L672.554 93.4875L644.651 53.3486H671.36L686.729 78.1183H680.313L695.682 53.3486H722.392L694.489 93.4875L695.085 86.4744L722.989 126.464H696.279Z" fill="white"/>
<path d="M605.036 127.806C597.675 127.806 591.209 126.264 585.638 123.181C580.167 120.097 575.889 115.72 572.805 110.05C569.722 104.38 568.18 97.6649 568.18 89.9057C568.18 82.4449 569.722 75.8297 572.805 70.0601C575.889 64.2904 580.167 59.7642 585.638 56.4815C591.209 53.0993 597.675 51.4082 605.036 51.4082C612.696 51.4082 619.261 53.149 624.732 56.6307C630.203 60.1124 634.431 64.7381 637.415 70.5077C640.4 76.1779 641.892 82.5444 641.892 89.6073C641.892 91.1989 641.842 92.6413 641.743 93.9345C641.643 95.2277 641.494 96.2722 641.295 97.068H586.235V80.6543H622.643L620.554 86.0261C620.554 81.3507 619.311 77.5208 616.824 74.5365C614.337 71.5522 610.507 70.0601 605.334 70.0601C600.559 70.0601 596.779 71.4528 593.994 74.2381C591.209 77.0235 589.816 80.7538 589.816 85.4292V93.6361C589.816 98.7094 591.308 102.639 594.292 105.424C597.277 108.11 601.455 109.453 606.826 109.453C611.104 109.453 614.486 108.657 616.973 107.065C619.559 105.374 621.698 103.236 623.389 100.649L639.504 109.304C636.421 114.974 631.895 119.5 625.926 122.882C619.957 126.165 612.994 127.806 605.036 127.806Z" fill="white"/>
<path d="M535.316 126.463L483.239 54.6907L492.938 52.0048V126.463H468.766V24.8477H491.148L542.478 96.0232L533.376 98.1123V24.8477H557.549V126.463H535.316Z" fill="white"/>
<path d="M407.368 122.286L377.973 53.3486H402.295L430.795 120.346L407.368 122.286ZM393.043 154.815L436.167 53.3486H460.489L417.365 154.815H393.043Z" fill="white"/>
<path d="M321.382 89.7562V86.7719L350.778 53.3477H377.487L345.257 90.3531L344.958 84.2353L378.383 126.463H350.33L321.382 89.7562ZM304.969 24.8477H328.992V126.463H304.969V24.8477Z" fill="white"/>
<path d="M256.142 129.001C250.074 129.001 244.453 128.105 239.281 126.315C234.108 124.524 229.482 121.888 225.404 118.406C221.425 114.925 218.092 110.548 215.406 105.275L233.76 93.4873C236.545 97.7648 239.977 101.097 244.056 103.485C248.234 105.773 252.71 106.917 257.485 106.917C261.464 106.917 264.448 106.121 266.438 104.529C268.427 102.938 269.422 100.849 269.422 98.2622C269.422 96.6706 268.974 95.2282 268.079 93.935C267.184 92.6418 265.493 91.448 263.006 90.3538C260.519 89.1601 256.988 88.0658 252.412 87.0711C243.857 85.0815 237.092 82.5946 232.118 79.6103C227.145 76.626 223.613 73.0449 221.524 68.8668C219.435 64.5893 218.391 59.7647 218.391 54.393C218.391 48.4244 219.883 43.0526 222.867 38.2777C225.951 33.4034 230.328 29.5735 235.998 26.7882C241.768 23.9034 248.532 22.4609 256.291 22.4609C265.145 22.4609 272.655 24.2018 278.823 27.6835C284.99 31.1651 289.815 35.6913 293.297 41.262L274.943 54.393C272.456 51.1102 269.323 48.7725 265.543 47.3799C261.862 45.9872 258.231 45.2908 254.65 45.2908C250.969 45.2908 248.035 45.9872 245.846 47.3799C243.757 48.7725 242.713 50.7621 242.713 53.3485C242.713 55.7359 243.807 57.7254 245.995 59.3171C248.283 60.8092 252.71 62.3014 259.275 63.7935C267.632 65.783 274.396 68.2202 279.569 71.1051C284.742 73.9899 288.522 77.571 290.909 81.8485C293.396 86.0266 294.639 91.1496 294.639 97.2177C294.639 103.385 293.048 108.856 289.865 113.631C286.781 118.406 282.354 122.186 276.584 124.972C270.914 127.658 264.1 129.001 256.142 129.001Z" fill="white"/>
<path fill-rule="evenodd" clip-rule="evenodd" d="M18.1557 50.3555C23.2097 21.2504 48.4682 0 78.0089 0H176.425L168.425 46.0666H133.082L140.617 15.8612C141.523 12.2276 136.887 9.81679 134.343 12.5986L103.729 46.0666H70.619C62.0915 46.0666 55.1786 52.9795 55.1786 61.5069H104.653L134.463 94.7229C136.96 97.5047 141.509 95.0939 140.619 91.4603L133.288 61.5069H165.744L158.269 104.554C153.215 133.659 127.957 154.91 98.416 154.91H0L7.03252 114.411H54.7839C58.0181 123.295 66.5862 129.598 76.5678 129.598C89.2974 129.598 99.7283 119.347 99.7283 106.564C99.7283 93.7815 89.2974 83.5301 76.5678 83.5301C66.4914 83.5301 57.8555 89.9533 54.6932 98.9708H9.71371L18.1557 50.3555ZM69.1007 106.564C69.1007 102.571 72.3823 99.2235 76.5678 99.2235C80.7532 99.2235 84.0348 102.571 84.0348 106.564C84.0348 110.557 80.7532 113.905 76.5678 113.905C72.3823 113.905 69.1007 110.557 69.1007 106.564Z" fill="url(#paint0_linear_86_352)"/>
<defs>
<linearGradient id="paint0_linear_86_352" x1="88.2124" y1="0" x2="121" y2="155" gradientUnits="userSpaceOnUse">
<stop stop-color="#5868FF"/>
<stop offset="0.355769" stop-color="#009FFF"/>
</linearGradient>
</defs>
</svg>
